<?xml version="1.0" standalone="no"?>
<!DOCTYPE svg PUBLIC "-//W3C//DTD SVG 20010904//EN"
 "http://www.w3.org/TR/2001/REC-SVG-20010904/DTD/svg10.dtd">
<svg version="1.0" xmlns="http://www.w3.org/2000/svg"
 width="359.000000pt" height="140.000000pt" viewBox="0 0 359.000000 140.000000"
 preserveAspectRatio="xMidYMid meet">

<g transform="translate(0.000000,140.000000) scale(0.100000,-0.100000)"
fill="#000000" stroke="none">
<path d="M3276 1385 c-77 -27 -135 -110 -136 -191 0 -43 28 -144 40 -144 3 0
22 16 40 35 19 20 68 56 108 81 72 45 102 82 102 124 0 37 -30 81 -65 96 -41
17 -40 17 -89 -1z"/>
<path d="M2835 1228 c-86 -47 -65 -182 38 -242 63 -37 119 -41 199 -16 l67 21
-39 35 c-22 20 -57 64 -79 98 -66 105 -125 138 -186 104z"/>
<path d="M2600 940 c0 -66 -2 -120 -5 -120 -3 0 -19 10 -35 22 -32 24 -115 35
-175 24 -23 -5 -54 -23 -81 -48 -129 -119 -102 -402 45 -477 78 -40 152 -39
215 4 34 23 36 23 36 5 0 -18 7 -20 75 -20 l75 0 0 365 0 365 -75 0 -75 0 0
-120z m-36 -225 c26 -28 36 -65 36 -134 0 -120 -115 -183 -183 -101 -47 56
-47 174 -1 230 22 26 33 30 75 30 40 0 54 -5 73 -25z"/>
<path d="M255 1033 c-14 -38 -208 -572 -231 -636 l-23 -67 88 0 87 0 23 70 22
70 129 0 129 0 22 -70 21 -70 90 0 c82 0 90 2 83 18 -3 9 -60 167 -126 350
-65 183 -121 337 -124 343 -4 5 -46 9 -95 9 -74 0 -89 -3 -95 -17z m134 -296
c19 -61 36 -118 39 -124 3 -10 -17 -13 -78 -13 -74 0 -82 2 -77 18 21 75 73
232 77 232 3 0 20 -51 39 -113z"/>
<path d="M3285 1023 c-22 -9 -42 -18 -44 -20 -3 -2 14 -22 36 -46 22 -23 53
-62 68 -87 39 -63 83 -108 115 -115 58 -13 130 44 130 102 0 40 -47 118 -88
147 -53 37 -154 46 -217 19z"/>
<path d="M967 876 c-20 -8 -44 -19 -52 -26 -12 -10 -15 -9 -15 4 0 13 -13 16
-80 16 l-80 0 0 -270 0 -270 80 0 80 0 0 143 c0 213 15 247 115 255 l55 4 0
79 0 79 -32 0 c-18 -1 -50 -7 -71 -14z"/>
<path d="M1224 845 c-58 -29 -94 -82 -94 -139 l0 -36 69 0 c69 0 69 0 76 30 8
37 39 60 80 60 58 0 96 -50 61 -79 -8 -6 -54 -18 -102 -27 -161 -27 -214 -73
-214 -184 0 -106 56 -155 175 -154 63 0 90 7 158 42 4 2 7 -3 7 -12 0 -13 13
-16 75 -16 l75 0 0 193 c0 105 -5 208 -10 227 -12 43 -62 93 -109 109 -19 6
-71 11 -116 11 -66 0 -90 -4 -131 -25z m206 -311 c0 -52 -53 -104 -107 -104
-46 0 -63 14 -63 51 0 45 21 58 125 82 42 10 45 7 45 -29z"/>
<path d="M1884 856 c-18 -8 -35 -19 -38 -25 -12 -19 -29 -12 -23 9 5 19 0 20
-74 20 l-79 0 0 -265 0 -265 80 0 80 0 0 179 c0 162 2 181 20 203 32 41 117
44 142 5 4 -7 8 -96 8 -199 l0 -188 81 0 80 0 -3 219 c-3 205 -4 222 -24 248
-40 54 -80 73 -153 73 -36 -1 -80 -7 -97 -14z"/>
<path d="M2945 852 c-67 -32 -105 -87 -105 -153 l0 -29 69 0 c65 0 69 1 75 25
14 57 71 80 131 53 28 -12 34 -48 12 -67 -8 -6 -52 -18 -98 -26 -119 -22 -141
-31 -179 -70 -31 -32 -35 -42 -38 -103 -6 -116 46 -166 173 -166 64 0 89 6
158 42 4 2 7 -3 7 -12 0 -13 13 -16 75 -16 l75 0 0 202 c0 231 -9 267 -78 310
-52 32 -217 38 -277 10z m195 -318 c0 -52 -53 -104 -107 -104 -46 0 -63 14
-63 50 0 36 29 60 92 76 78 18 78 18 78 -22z"/>
<path d="M1137 202 c-38 -41 -11 -82 63 -97 58 -12 73 -31 44 -59 -20 -21 -73
-20 -102 0 -25 18 -38 13 -29 -10 7 -19 81 -39 110 -30 36 11 57 35 57 65 0
33 -27 54 -83 65 -21 3 -41 13 -44 20 -14 37 59 60 91 29 16 -17 36 -20 36 -6
0 41 -111 58 -143 23z"/>
<path d="M1418 195 c-87 -87 6 -232 115 -180 62 29 78 118 31 174 -22 27 -32
31 -74 31 -37 0 -53 -5 -72 -25z m106 -6 c52 -24 55 -123 5 -149 -70 -38 -140
34 -108 112 18 43 58 57 103 37z"/>
<path d="M1710 110 c0 -91 3 -110 15 -110 12 0 15 13 15 55 l0 55 45 0 c33 0
45 4 45 15 0 11 -12 15 -45 15 -43 0 -45 1 -45 30 0 29 1 30 50 30 28 0 50 5
50 10 0 6 -28 10 -65 10 l-65 0 0 -110z"/>
<path d="M1930 210 c0 -5 16 -10 35 -10 l34 0 3 -97 c2 -66 7 -98 16 -101 9
-3 12 21 12 97 l0 101 40 0 c22 0 40 5 40 10 0 6 -37 10 -90 10 -53 0 -90 -4
-90 -10z"/>
<path d="M2184 205 c3 -9 13 -44 21 -78 41 -161 54 -166 86 -32 13 52 25 92
28 89 3 -3 17 -44 31 -92 34 -117 47 -115 82 13 32 118 32 115 14 115 -9 0
-20 -29 -32 -85 -10 -47 -21 -85 -24 -85 -3 0 -16 38 -30 85 -34 115 -50 115
-81 0 -12 -47 -25 -82 -29 -78 -4 4 -14 43 -24 86 -13 54 -22 77 -33 77 -9 0
-13 -6 -9 -15z"/>
<path d="M2611 198 c-78 -199 -78 -198 -61 -198 6 0 17 18 26 40 16 39 18 40
63 40 44 0 47 -2 63 -40 9 -22 22 -40 28 -40 13 0 15 -5 -38 127 -39 97 -63
118 -81 71z m59 -85 c0 -13 -51 -19 -62 -7 -3 3 1 23 10 45 l16 41 17 -34 c10
-18 18 -39 19 -45z"/>
<path d="M2840 110 c0 -91 3 -110 15 -110 11 0 15 12 15 45 l0 45 48 0 c54 0
76 -16 87 -62 4 -16 13 -28 20 -28 18 0 0 70 -22 87 -15 11 -15 13 0 19 19 7
23 64 7 95 -9 16 -22 19 -90 19 l-80 0 0 -110z m144 74 c34 -34 4 -64 -65 -64
l-49 0 0 40 0 40 49 0 c32 0 55 -6 65 -16z"/>
<path d="M3140 110 l0 -110 80 0 c64 0 80 3 80 15 0 12 -14 15 -65 15 l-65 0
0 40 0 40 60 0 c47 0 60 3 60 15 0 12 -13 15 -60 15 l-60 0 0 30 0 30 65 0
c37 0 65 4 65 10 0 6 -33 10 -80 10 l-80 0 0 -110z"/>
</g>
</svg>
