<?xml version="1.0" standalone="no"?>
<!DOCTYPE svg PUBLIC "-//W3C//DTD SVG 20010904//EN"
 "http://www.w3.org/TR/2001/REC-SVG-20010904/DTD/svg10.dtd">
<svg version="1.0" xmlns="http://www.w3.org/2000/svg"
 width="1200.000000pt" height="630.000000pt" viewBox="0 0 1200.000000 630.000000"
 preserveAspectRatio="xMidYMid meet">

<g transform="translate(0.000000,630.000000) scale(0.100000,-0.100000)"
fill="#000000" stroke="none">
<path d="M8246 4210 c-124 -62 -187 -163 -188 -300 0 -60 12 -115 43 -187 l20
-47 19 29 c25 40 86 90 195 159 50 32 101 68 113 80 84 76 67 223 -31 269 -46
22 -123 21 -171 -3z"/>
<path d="M7580 3968 c-58 -40 -75 -72 -75 -142 0 -53 5 -71 35 -120 93 -155
267 -202 455 -123 28 11 51 22 53 23 2 1 -20 24 -48 50 -28 27 -81 93 -117
149 -104 158 -135 185 -221 185 -34 0 -59 -7 -82 -22z"/>
<path d="M7237 3714 c-4 -4 -7 -93 -7 -198 l0 -190 -27 27 c-79 75 -235 96
-345 45 -135 -63 -208 -203 -208 -403 0 -103 22 -198 63 -268 38 -64 118 -132
180 -153 106 -36 247 -15 314 48 l23 21 0 -31 0 -32 115 0 115 0 -2 568 -3
567 -106 3 c-58 1 -108 -1 -112 -4z m-90 -514 c48 -29 75 -90 81 -185 3 -52 0
-96 -8 -121 -57 -179 -253 -179 -310 0 -18 57 -8 205 17 248 44 75 148 102
220 58z"/>
<path d="M3642 3690 c-6 -3 -326 -884 -400 -1097 -3 -10 27 -13 131 -13 l135
0 38 110 39 110 195 -2 194 -3 34 -107 34 -108 139 0 139 0 -49 138 c-144 409
-344 968 -348 972 -5 6 -272 7 -281 0z m198 -494 c31 -102 55 -188 52 -191 -3
-3 -56 -5 -119 -5 -81 0 -113 3 -113 12 0 18 114 377 118 373 2 -2 30 -87 62
-189z"/>
<path d="M8370 3680 c-44 -8 -142 -42 -169 -59 -11 -7 -9 -10 7 -15 32 -11
115 -107 171 -199 53 -88 111 -150 150 -162 38 -12 97 -8 129 9 72 37 105 114
83 196 -40 153 -208 257 -371 230z"/>
<path d="M4755 3441 c-39 -10 -85 -34 -112 -60 l-22 -21 -3 33 -3 32 -115 0
-115 0 -3 -422 -2 -423 125 0 125 0 0 239 c0 151 4 250 11 272 26 76 82 109
184 109 l66 0 -3 123 -3 122 -50 2 c-27 1 -63 -2 -80 -6z"/>
<path d="M5222 3419 c-154 -26 -252 -129 -252 -266 l0 -43 109 0 109 0 10 43
c13 51 38 76 86 87 42 9 120 -5 137 -26 18 -21 14 -64 -8 -85 -14 -15 -56 -26
-155 -43 -205 -36 -288 -83 -323 -184 -39 -117 -4 -248 82 -302 95 -60 263
-60 370 0 l51 29 6 -25 7 -25 117 3 117 3 0 295 c-1 330 -8 378 -67 446 -74
84 -229 121 -396 93z m218 -486 c0 -73 -43 -148 -101 -178 -15 -8 -51 -15 -79
-15 -61 0 -90 23 -90 74 0 48 30 80 92 98 61 18 159 45 171 47 4 0 7 -11 7
-26z"/>
<path d="M6193 3420 c-54 -11 -80 -25 -120 -63 l-33 -31 0 37 c0 20 -3 38 -7
38 -47 8 -226 2 -234 -7 -5 -7 -8 -170 -7 -410 l3 -399 123 -3 122 -3 0 234
c0 283 7 330 55 375 31 29 41 32 94 32 49 0 65 -4 88 -24 l28 -24 3 -296 3
-296 125 0 124 0 0 308 c0 346 -5 379 -64 449 -61 70 -192 107 -303 83z"/>
<path d="M7852 3419 c-159 -28 -252 -124 -256 -267 l-1 -37 108 -3 c96 -2 108
-1 113 15 30 95 57 118 137 116 62 -2 101 -27 105 -71 5 -45 -25 -59 -185 -88
-252 -45 -323 -108 -324 -287 -1 -159 93 -240 276 -240 93 0 189 26 215 58 18
21 28 19 32 -7 3 -22 7 -23 121 -26 l118 -3 -3 318 -3 318 -29 58 c-48 99
-133 143 -291 152 -44 2 -104 0 -133 -6z m192 -584 c-27 -57 -76 -88 -145 -93
-76 -6 -99 12 -99 73 0 62 29 84 153 115 l102 26 3 -43 c2 -25 -4 -57 -14 -78z"/>
<path d="M5020 2413 c-35 -13 -60 -47 -60 -81 0 -47 23 -69 89 -88 88 -24 110
-35 117 -56 8 -27 -21 -56 -63 -64 -42 -8 -109 10 -117 31 -3 8 -17 15 -30 15
-22 0 -24 -3 -17 -22 15 -41 67 -68 133 -68 95 0 138 32 138 103 0 47 -34 75
-116 98 -74 21 -98 37 -89 61 18 48 130 49 158 2 9 -16 47 -19 47 -3 0 22 -22
49 -50 64 -28 15 -109 19 -140 8z"/>
<path d="M5440 2397 c-101 -67 -101 -227 0 -294 46 -32 124 -32 170 0 59 40
75 71 75 147 0 76 -16 107 -75 148 -46 31 -124 31 -170 -1z m135 -31 c93 -39
86 -204 -11 -236 -82 -27 -154 28 -154 118 0 56 21 95 62 115 41 20 59 21 103
3z"/>
<path d="M5860 2250 l0 -170 25 0 c25 0 25 1 25 80 l0 80 70 0 c63 0 70 2 70
20 0 18 -7 20 -70 20 l-70 0 0 50 0 50 80 0 c73 0 80 2 80 20 0 19 -7 20 -105
20 l-105 0 0 -170z"/>
<path d="M6200 2400 c0 -18 7 -20 55 -20 37 0 55 -4 56 -12 1 -7 2 -74 3 -148
1 -132 2 -135 24 -138 22 -3 22 -3 22 147 l0 151 60 0 c53 0 60 2 60 20 0 19
-7 20 -140 20 -133 0 -140 -1 -140 -20z"/>
<path d="M6611 2313 c16 -60 37 -136 46 -171 14 -58 18 -63 41 -60 24 3 28 12
63 143 20 77 39 133 42 125 3 -8 23 -73 43 -143 36 -122 39 -128 62 -125 23 3
28 15 68 163 24 88 44 164 44 168 0 5 -10 7 -22 5 -20 -3 -26 -18 -53 -130
-17 -70 -33 -130 -36 -132 -3 -3 -23 54 -45 127 -36 122 -41 132 -65 135 -25
3 -27 -1 -59 -120 -18 -68 -36 -129 -40 -136 -3 -7 -21 48 -39 122 -30 126
-34 136 -56 136 l-23 0 29 -107z"/>
<path d="M7251 2398 c-42 -110 -110 -286 -116 -300 -6 -14 -2 -18 16 -18 20 0
28 10 44 53 l21 52 73 0 74 0 20 -52 c16 -43 24 -53 43 -53 13 0 24 1 24 3 0
1 -31 76 -68 167 -63 151 -71 165 -95 168 -21 3 -29 -2 -36 -20z m67 -105 l21
-53 -50 0 c-27 0 -49 2 -49 4 0 18 45 115 50 109 4 -4 16 -32 28 -60z"/>
<path d="M7600 2250 l0 -170 25 0 c24 0 25 2 25 68 l0 69 65 -2 c82 -3 110
-20 128 -83 10 -35 19 -48 35 -50 14 -2 22 2 22 11 0 30 -33 108 -51 121 -18
12 -18 13 6 24 22 10 25 18 25 68 0 48 -4 59 -29 85 -29 29 -31 29 -140 29
l-111 0 0 -170z m215 105 c29 -28 31 -43 11 -70 -12 -16 -29 -20 -95 -23 l-81
-4 0 61 0 61 70 0 c62 0 74 -3 95 -25z"/>
<path d="M8060 2250 l0 -170 125 0 c118 0 125 1 125 20 0 19 -7 20 -105 20
l-105 0 0 60 0 60 95 0 c88 0 95 1 95 20 0 19 -7 20 -95 20 l-95 0 0 50 0 50
105 0 c98 0 105 1 105 20 0 19 -7 20 -125 20 l-125 0 0 -170z"/>
</g>
</svg>
